# xmcd
#
# Track frame offsets:
#	150
#	14657
#	32055
#	46102
#	58792
#	74912
#	88400
#	103329
#	119617
#	132145
#	152610
#	172022
#	188280
#	204175
#	224635
#
# Disc length: 3231 seconds
#
# Revision: 2
# Processed by: cddbd v1.5.2PL0 Copyright (c) Steve Scherf et al.
# Submitted via: audiograbber 1.83.01
#
DISCID=e10c9d0f
DTITLE=8431 - SC 70s and 80s Country Vol 6
DYEAR=1900
DGENRE=Karaoke
TTITLE0=Larry Gatlin and the Gatlin Brothers - Houston ( Means I'm One Day Closer
TTITLE0=To You )
TTITLE1=George Strait - Famous Last Words Of A Fool
TTITLE2=Eddy Raven - I'm Gonna Get You
TTITLE3=Merle Haggard - Carolyn
TTITLE4=David Allen Cole - Ride, The
TTITLE5=Johnny Cash - Flesh And Blood
TTITLE6=Ronnie McDowell - You're Gonna Ruin My Bad Reputation
TTITLE7=Lee Greenwood - I Don't Mind The Thorns
TTITLE8=Loretta Lynn - Love Is The Foundation
TTITLE9=Paul Overstreet - All The Fun
TTITLE10=K.T. Oslin - Do Ya'
TTITLE11=Waylon Jennings - Amanda
TTITLE12=Emmylou Harris - Blue Kentucky Girl
TTITLE13=Hank Williams Jr. - Country Boy Can Survive, A
TTITLE14=Earl Thomas Conley - Love Don't Care
EXTD=
EXTT0=
EXTT1=
EXTT2=
EXTT3=
EXTT4=
EXTT5=
EXTT6=
EXTT7=
EXTT8=
EXTT9=
EXTT10=
EXTT11=
EXTT12=
EXTT13=
EXTT14=
PLAYORDER=
